<?xml version="1.0" encoding="utf-8"?>
<!-- Generator: Adobe Illustrator 16.0.0, SVG Export Plug-In . SVG Version: 6.00 Build 0)  -->
<!DOCTYPE svg PUBLIC "-//W3C//DTD SVG 1.1//EN" "http://www.w3.org/Graphics/SVG/1.1/DTD/svg11.dtd">
<svg version="1.1" id="Layer_1" xmlns="http://www.w3.org/2000/svg" xmlns:xlink="http://www.w3.org/1999/xlink" x="0px" y="0px"
	 width="100px" height="100px" viewBox="0 0 100 100" enable-background="new 0 0 100 100" xml:space="preserve">
<path fill="#231F20" d="M90.001,0H10C4.5,0,0,4.5,0,10v80c0,5.5,4.5,10,10,10h80.001c5.5,0,10-4.5,10-10V10
	C100.001,4.5,95.501,0,90.001,0z M30.86,83.373H16.051V38.821H30.86V83.373z M23.456,32.739H23.36c-4.971,0-8.183-3.422-8.183-7.698
	c0-4.37,3.311-7.696,8.378-7.696c5.064,0,8.183,3.326,8.279,7.696C31.834,29.317,28.619,32.739,23.456,32.739z M84.254,83.373
	H69.448V59.539c0-5.99-2.145-10.074-7.502-10.074c-4.091,0-6.528,2.755-7.597,5.416c-0.392,0.95-0.488,2.282-0.488,3.614v24.878
	H39.054c0,0,0.195-40.371,0-44.552h14.807v6.311c1.968-3.035,5.486-7.355,13.346-7.355c9.742,0,17.047,6.366,17.047,20.052V83.373z"
	/>
</svg>
